<svg id="Camada_1" data-name="Camada 1" xmlns="http://www.w3.org/2000/svg" viewBox="0 0 81.84 121.97"><defs><style>.cls-1{fill:#edb23a;}.cls-2{fill:#fcc23f;}.cls-3,.cls-4{fill:#254356;}.cls-4{font-size:20.76px;stroke:#254356;stroke-miterlimit:10;font-family:InkFree, Ink Free;}</style></defs><title>flashlog-logo-full</title><path class="cls-1" d="M105.7,44.14a2.58,2.58,0,0,0-2.41-1.65H79.52L94.63,7.63A2.58,2.58,0,0,0,92.27,4h-39A2.58,2.58,0,0,0,50.9,5.59l-3.11,7.26H73.05a2.58,2.58,0,0,1,2.37,3.6L60.31,51.31H84.08a2.58,2.58,0,0,1,1.73,4.49l-42.09,38-1,2.9a2.58,2.58,0,0,0,4.17,2.73L105,47A2.58,2.58,0,0,0,105.7,44.14Z" transform="translate(-24.2 -4.03)"/><path class="cls-2" d="M86.49,53a2.58,2.58,0,0,0-2.41-1.65H60.31L75.42,16.45a2.58,2.58,0,0,0-2.37-3.6H47.79l-22.71,53a2.58,2.58,0,0,0,2.37,3.59h24.4L43.72,93.8l42.09-38A2.58,2.58,0,0,0,86.49,53Z" transform="translate(-24.2 -4.03)"/><path class="cls-3" d="M45.2,100.09a2.58,2.58,0,0,1-2.44-3.39l9.09-27.27H27.45a2.58,2.58,0,0,1-2.37-3.59L50.9,5.59A2.58,2.58,0,0,1,53.27,4h39a2.58,2.58,0,0,1,2.37,3.6L79.52,42.49h23.78A2.58,2.58,0,0,1,105,47L46.93,99.43A2.58,2.58,0,0,1,45.2,100.09ZM31.36,64.27H55.42a2.58,2.58,0,0,1,2.45,3.39L50.74,89,96.59,47.65h-21A2.58,2.58,0,0,1,73.23,44L88.34,9.18H55Z" transform="translate(-24.2 -4.03)"/><text class="cls-4" transform="translate(1.02 114.16)">FlashLog</text></svg>